<?xml version="1.0" encoding="utf-8"?>
<!-- Generator: Adobe Illustrator 26.0.3, SVG Export Plug-In . SVG Version: 6.00 Build 0)  -->
<svg version="1.0" id="katman_1" xmlns="http://www.w3.org/2000/svg" xmlns:xlink="http://www.w3.org/1999/xlink" x="0px" y="0px"
	 viewBox="0 0 600 450" style="enable-background:new 0 0 600 450;" xml:space="preserve">
<style type="text/css">
	.st0{fill-rule:evenodd;clip-rule:evenodd;fill:#20315E;}
	.st1{fill:#C0765A;}
	.st2{fill:#20315E;}
	.st3{fill:#A0624D;}
</style>
<g id="g4445-4_3_" transform="translate(-1614.3646,-14.177857)">
	<g id="g4447-8_3_">
		<path id="path4449-4_3_" class="st0" d="M1880.2,180.3c-2.7,0.1-1.9,1.3-7.8,2.8c-6,1.5-13.2,0.6-19.6,3.3
			c-16.8,7-19.5,34.3-39.5,44.8c-13.1,7.4-26.5,9.1-38.5,12.9c-9.6,3.8-15.6,6.4-22.6,12.5c-5.5,4.7-6.8,9.3-12.5,15.2
			c-5.8,7.9-27.7,0.9-33.4,10.8c3,1.9,4.7,2.5,9.9,1.8c-1.1,2.1-8,4.8-6.7,7.8c0,0,16.6,3,30.7-5.4c6.5-2.7,12.7-8.3,22.8-9.6
			c13.2-1.8,28,2.8,43.9,4c-3.3,6.5-6.7,10.3-10.3,15.7c-1.1,1.2,1,2.3,4.8,1.5c6.9-1.7,12-3.6,17-7c6.5-4.5,9.3-8.6,14.8-15.1
			c4.8,7.6,21.6,9.3,25,2.7c-6.4-2.7-7.8-16.9-5.6-23c2.6-5.8,4.5-14.1,6.6-21.7c1.9-6.9,3.1-17.4,5.3-22.8
			c2.7-6.7,7.9-8.8,11.9-12.3c3.9-3.6,7.9-6.5,7.7-14.6C1884.1,181.7,1882.7,180.2,1880.2,180.3L1880.2,180.3z"/>
		<path id="path4451-9_3_" class="st1" d="M1711.3,290.5c10.3,0.3,13.1,0,21.3-3.5c6.9-3,16.2-11.1,24.4-13.7
			c12-3.9,24.9-3.3,37.7-1.8c4.3,0.5,8.6,1.2,11.7,0.9c4.8-2.9,5-10.9,8-11.6c-0.8,15.4-7.4,25.3-14.1,34.3
			c13.9-2.5,23.3-11.2,28.9-22c1.7-3.3,4.6-8.6,5.8-12.3c1,2.4-1.3,4-0.2,6.6c9-7.4,13.2-15.8,16.9-28.2
			c4.2-14.3,8.6-26.6,11.3-30.8c2.7-4.1,6.8-6.7,10.6-9.3c4.3-3,8.1-6.1,8.8-11.9c-4.5-0.4-5.6-1.5-6.2-3.7
			c-2.3,1.3-4.3,1.6-6.7,1.6c-2,0.1-4.3,0-7,0.2c-22.6,2.3-23.7,24.4-40.1,40.7c-1.1,1-2.9,2.6-4.1,3.4c-5.1,3.8-10.5,5.9-16.2,8.1
			c-9.3,3.5-18.1,4.6-26.8,7.6c-6.4,2.2-12.3,4.8-17.6,8.4c-1.3,0.9-3.1,2.5-4.2,3.4c-3.1,2.5-5.1,5.3-7.1,8.2c-2,3-4,6-6.9,8.9
			c-4.8,4.7-22.8,1.4-29.1,5.8c-0.7,0.5-1.3,1.1-1.7,1.8c3.4,1.6,5.8,0.6,9.7,1C1718.7,286.6,1710,288.8,1711.3,290.5L1711.3,290.5z
			"/>
		<path id="path4457-3_3_" class="st0" d="M1854.7,194.8c3.2,2.8,9.9,0.6,8.7-5C1858.5,189.4,1855.6,191.1,1854.7,194.8z"/>
		<path id="path4459-4_3_" class="st2" d="M1877.1,188.3c-0.8,1.8-2.5,4.1-2.5,8.6c0,0.8-0.6,1.3-0.6,0.1c0-4.4,1.2-6.4,2.5-8.9
			C1877,187.2,1877.4,187.6,1877.1,188.3z"/>
		<path id="path4461-6_3_" class="st2" d="M1876.2,187.7c-1,1.7-3.4,4.8-3.8,9.4c-0.1,0.8-0.7,1.3-0.6,0.1c0.4-4.4,2.4-7.2,3.8-9.6
			C1876.3,186.5,1876.6,187,1876.2,187.7z"/>
		<path id="path4463-0_3_" class="st2" d="M1875.4,186.8c-1.2,1.6-4.9,5.4-5.7,9.8c-0.1,0.8-0.8,1.2-0.6,0c0.8-4.4,4-7.8,5.7-10.1
			C1875.6,185.6,1875.9,186.1,1875.4,186.8z"/>
		<path id="path4465-8_3_" class="st2" d="M1874.7,185.8c-1.4,1.4-5.8,6.2-7.2,10.5c-0.2,0.7-1,1.1-0.6-0.1
			c1.4-4.2,5.3-8.8,7.3-10.8C1875.1,184.7,1875.3,185.2,1874.7,185.8L1874.7,185.8z"/>
	</g>
</g>
<g id="g4483-2_1_" transform="translate(-84.332895,80)">
	<g id="g4485-8_1_" transform="translate(1.2626907,0)">
		<path id="path4487-2_1_" class="st2" d="M517.7,122.7v31.2h-3.9v-5.4c-3.6,4.3-7.6,6.4-12.2,6.4s-8.5-1.6-11.6-4.9
			c-3.1-3.3-4.7-7.2-4.7-11.7c0-4.6,1.6-8.4,4.8-11.6c3.2-3.2,7-4.9,11.4-4.9c5.1,0,9.2,2.2,12.4,6.5v-5.7L517.7,122.7 M514,138.5
			c0-3.6-1.2-6.6-3.6-9c-2.4-2.5-5.3-3.7-8.8-3.7c-3.5,0-6.4,1.3-8.8,3.8c-2.4,2.5-3.6,5.5-3.6,8.9s1.2,6.4,3.6,9
			c2.4,2.5,5.3,3.8,8.7,3.8c3.4,0,6.3-1.2,8.8-3.6C512.8,145.2,514,142.2,514,138.5"/>
	</g>
	<g id="g4489-8_1_" transform="translate(0.50507628,0)">
		<path id="path4491-4_1_" class="st2" d="M526.4,153.9v-42.2h8.8c6,0,10.4,0.4,13.2,1.3c2.8,0.9,5.2,2.2,7.3,4.2
			c2,1.9,3.6,4.2,4.7,6.9c1.1,2.7,1.6,6,1.6,9.6c0,3.6-0.9,7.1-2.6,10.4c-1.7,3.2-4,5.6-6.9,7.3c-2.9,1.6-7.1,2.5-12.6,2.5H526.4
			 M530.5,149.9h4.9c5.1,0,8.8-0.2,11-0.8c2.3-0.5,4.3-1.5,6.1-3c1.7-1.5,3-3.4,3.9-5.5c0.9-2.2,1.3-4.6,1.3-7.4
			c0-2.8-0.5-5.4-1.6-7.7c-1-2.3-2.5-4.3-4.4-5.8c-1.9-1.5-4.2-2.5-6.8-3.1c-2.6-0.6-6.4-0.8-11.5-0.8h-3V149.9"/>
	</g>
	<g id="g4493-2_1_" transform="translate(0.50507628,0)">
		<path id="path4495-3_1_" class="st2" d="M474,114c0-0.9,0.3-1.7,0.9-2.4c0.7-0.7,1.5-1,2.4-1c0.9,0,1.7,0.3,2.4,1
			c0.7,0.6,1,1.4,1,2.4c0,0.9-0.3,1.7-1,2.3c-0.6,0.6-1.4,0.9-2.4,0.9c-0.9,0-1.7-0.3-2.4-1C474.3,115.6,474,114.9,474,114
			 M475.3,122.7h4.1v31.2h-4.1V122.7"/>
	</g>
	<g id="g4497-1_1_">
		<path id="path4499-4_1_" class="st2" d="M364.7,153.9l6-42.2h0.6l17.2,34.6l17-34.6h0.6l6.1,42.2h-4.2l-4.1-30.2l-14.9,30.2H388
			l-15.1-30.4l-4.1,30.4L364.7,153.9"/>
	</g>
	<g id="g4501-4_1_" transform="translate(-0.25253814,0)">
		<path id="path4503-0_1_" class="st2" d="M449.1,122.7v31.2h-3.9v-5.4c-3.6,4.3-7.6,6.4-12.2,6.4s-8.5-1.6-11.6-4.9
			c-3.1-3.3-4.7-7.2-4.7-11.7c0-4.6,1.6-8.4,4.8-11.6c3.2-3.2,7-4.9,11.4-4.9c5.1,0,9.2,2.2,12.4,6.5v-5.7L449.1,122.7 M445.4,138.5
			c0-3.6-1.2-6.6-3.6-9c-2.4-2.5-5.3-3.7-8.8-3.7c-3.5,0-6.4,1.3-8.8,3.8c-2.4,2.5-3.6,5.5-3.6,8.9s1.2,6.4,3.6,9
			c2.4,2.5,5.3,3.8,8.7,3.8c3.4,0,6.3-1.2,8.8-3.6C444.2,145.2,445.4,142.2,445.4,138.5"/>
	</g>
	<g id="g4505-7_1_" transform="translate(-1.0101526,0)">
		<path id="path4507-8_1_" class="st2" d="M456.7,122.7h4.1v4.5c1.1-1.8,2.2-3.2,3.2-4.1c1.1-0.9,2.2-1.3,3.5-1.3
			c1.3,0,2.6,0.3,3.9,1.1l-2.1,3.4c-0.6-0.3-1.2-0.5-1.8-0.5c-1.2,0-2.4,0.6-3.5,1.9c-1.1,1.2-1.8,2.9-2.4,4.9
			c-0.5,2-0.8,5.6-0.8,10.8v10.6h-4.1V122.7"/>
	</g>
	<g id="g4509-8_1_" transform="translate(1.0101526,0)">
		<path id="path4511-4_1_" class="st2" d="M566.3,111.7h8.3c4.4,0,7.8,0.9,10.1,2.7c2.3,1.8,3.5,4.3,3.5,7.6c0,1.8-0.5,3.6-1.4,5.1
			c-0.9,1.5-2.2,2.8-4,3.7c2.9,0.9,5.1,2.4,6.6,4.2c1.5,1.9,2.3,4.1,2.3,6.7c0,3.5-1.3,6.4-3.8,8.7c-2.5,2.3-5.8,3.4-9.9,3.4h-11.6
			V111.7 M570.5,115.8v13.5h2.4c3.7,0,6.4-0.6,8.2-1.8c1.8-1.2,2.7-3,2.7-5.5c0-4.2-2.8-6.2-8.5-6.2H570.5 M570.5,133.6v16.2h5.2
			c3,0,5.2-0.3,6.6-0.9c1.5-0.6,2.6-1.6,3.5-2.8c0.9-1.3,1.3-2.6,1.3-3.9c0-1.3-0.2-2.5-0.8-3.5c-0.5-1-1.3-1.9-2.3-2.7
			c-1-0.8-2.2-1.4-3.6-1.8c-1.4-0.4-4-0.6-7.8-0.6H570.5"/>
	</g>
</g>
<g id="g50">
	<path id="path30" class="st3" d="M294.4,254.7h-9.7v10.2h-4.2v-24.2h15.4v3.4h-11.2v7.2h9.7V254.7z"/>
	<path id="path32" class="st3" d="M303.4,255.8c0-1.8,0.4-3.3,1-4.8c0.7-1.4,1.7-2.5,2.9-3.2c1.3-0.8,2.7-1.1,4.4-1.1
		c2.4,0,4.4,0.8,5.9,2.3c1.5,1.6,2.3,3.6,2.5,6.2l0,1c0,1.8-0.3,3.3-1,4.8c-0.7,1.4-1.6,2.5-2.9,3.2c-1.3,0.8-2.7,1.1-4.4,1.1
		c-2.5,0-4.6-0.8-6.1-2.5c-1.5-1.7-2.3-3.9-2.3-6.8L303.4,255.8L303.4,255.8z M307.4,256.1c0,1.9,0.4,3.3,1.1,4.3
		c0.8,1,1.8,1.6,3.2,1.6c1.4,0,2.4-0.5,3.2-1.6c0.8-1.1,1.1-2.6,1.1-4.7c0-1.8-0.4-3.2-1.2-4.3c-0.8-1.1-1.8-1.6-3.2-1.6
		c-1.3,0-2.4,0.5-3.1,1.6C307.8,252.5,307.4,254,307.4,256.1z"/>
	<path id="path34" class="st3" d="M340.1,263.2c-1.2,1.4-2.9,2.1-5,2.1c-2,0-3.4-0.6-4.4-1.7c-1-1.1-1.5-2.8-1.5-4.9v-11.6h4v11.6
		c0,2.3,1,3.4,2.8,3.4c2,0,3.3-0.7,4-2.1v-12.9h4v18h-3.8L340.1,263.2z"/>
	<path id="path36" class="st3" d="M359.6,247l0.1,2.1c1.3-1.6,3.1-2.4,5.2-2.4c3.7,0,5.6,2.1,5.7,6.4v11.9h-4v-11.6
		c0-1.1-0.2-2-0.7-2.5c-0.5-0.6-1.3-0.8-2.4-0.8c-1.6,0-2.8,0.7-3.6,2.2v12.8h-4v-18H359.6z"/>
	<path id="path38" class="st3" d="M379.8,255.8c0-2.8,0.6-5,1.9-6.7c1.3-1.7,3-2.5,5.2-2.5c1.9,0,3.4,0.7,4.6,2v-9.2h4v25.5h-3.6
		l-0.2-1.9c-1.2,1.5-2.8,2.2-4.8,2.2c-2.1,0-3.8-0.9-5.1-2.5C380.4,261,379.8,258.7,379.8,255.8z M383.8,256.1c0,1.8,0.4,3.2,1,4.3
		c0.7,1,1.7,1.5,3,1.5c1.6,0,2.9-0.7,3.6-2.2v-7.7c-0.7-1.4-1.9-2.2-3.6-2.2c-1.3,0-2.3,0.5-3,1.6S383.8,254.1,383.8,256.1z"/>
	<path id="path40" class="st3" d="M417.2,264.9c-0.2-0.3-0.3-0.9-0.5-1.7c-1.3,1.3-2.9,2-4.7,2c-1.8,0-3.3-0.5-4.4-1.5
		s-1.7-2.3-1.7-3.8c0-1.9,0.7-3.4,2.1-4.4c1.4-1,3.5-1.5,6.1-1.5h2.5v-1.2c0-0.9-0.3-1.7-0.8-2.2c-0.5-0.6-1.3-0.8-2.4-0.8
		c-0.9,0-1.7,0.2-2.3,0.7c-0.6,0.5-0.9,1-0.9,1.8h-4c0-1,0.3-1.9,1-2.8c0.6-0.9,1.5-1.5,2.7-2c1.1-0.5,2.4-0.7,3.8-0.7
		c2.1,0,3.8,0.5,5,1.6s1.9,2.5,1.9,4.5v8.1c0,1.6,0.2,2.9,0.7,3.9v0.3C421.3,264.9,417.2,264.9,417.2,264.9z M412.7,262
		c0.8,0,1.5-0.2,2.2-0.6c0.7-0.4,1.2-0.9,1.6-1.6v-3.4h-2.2c-1.5,0-2.6,0.3-3.4,0.8c-0.8,0.5-1.1,1.3-1.1,2.2c0,0.8,0.3,1.4,0.8,1.8
		C411.2,261.8,411.9,262,412.7,262z"/>
	<path id="path42" class="st3" d="M437.6,242.6v4.4h3.2v3h-3.2v10c0,0.7,0.1,1.2,0.4,1.5c0.3,0.3,0.8,0.5,1.5,0.5
		c0.5,0,0.9-0.1,1.4-0.2v3.1c-0.9,0.2-1.8,0.4-2.7,0.4c-3.1,0-4.6-1.7-4.6-5.1v-10.2h-3v-3h3v-4.4H437.6z"/>
	<path id="path44" class="st3" d="M452.6,242.3c0-0.6,0.2-1.1,0.6-1.5c0.4-0.4,1-0.6,1.7-0.6c0.7,0,1.3,0.2,1.7,0.6
		c0.4,0.4,0.6,0.9,0.6,1.5c0,0.6-0.2,1.1-0.6,1.5s-1,0.6-1.7,0.6s-1.3-0.2-1.7-0.6C452.8,243.4,452.6,242.9,452.6,242.3z
		 M456.9,264.9h-4v-18h4V264.9z"/>
	<path id="path46" class="st3" d="M467.3,255.8c0-1.8,0.4-3.3,1-4.8c0.7-1.4,1.7-2.5,2.9-3.2c1.3-0.8,2.7-1.1,4.4-1.1
		c2.4,0,4.4,0.8,5.9,2.3c1.5,1.6,2.3,3.6,2.5,6.2l0,1c0,1.8-0.3,3.3-1,4.8c-0.7,1.4-1.7,2.5-2.9,3.2c-1.3,0.8-2.7,1.1-4.4,1.1
		c-2.5,0-4.6-0.8-6.1-2.5s-2.3-3.9-2.3-6.8L467.3,255.8L467.3,255.8z M471.3,256.1c0,1.9,0.4,3.3,1.1,4.3c0.8,1,1.8,1.6,3.2,1.6
		c1.4,0,2.4-0.5,3.2-1.6c0.8-1.1,1.1-2.6,1.1-4.7c0-1.8-0.4-3.2-1.2-4.3c-0.8-1.1-1.8-1.6-3.2-1.6c-1.3,0-2.4,0.5-3.1,1.6
		C471.7,252.5,471.3,254,471.3,256.1z"/>
	<path id="path48" class="st3" d="M496.9,247l0.1,2.1c1.3-1.6,3.1-2.4,5.2-2.4c3.7,0,5.6,2.1,5.7,6.4v11.9h-4v-11.6
		c0-1.1-0.2-2-0.7-2.5c-0.5-0.6-1.3-0.8-2.4-0.8c-1.6,0-2.8,0.7-3.6,2.2v12.8h-4v-18H496.9z"/>
</g>
</svg>
