<?xml version="1.0" encoding="utf-8"?>
<!-- Generator: Adobe Illustrator 26.0.3, SVG Export Plug-In . SVG Version: 6.00 Build 0)  -->
<svg version="1.0" id="Layer_1" xmlns="http://www.w3.org/2000/svg" xmlns:xlink="http://www.w3.org/1999/xlink" x="0px" y="0px"
	 viewBox="0 0 895.5 571.8" style="enable-background:new 0 0 895.5 571.8;" xml:space="preserve">
<style type="text/css">
	.st0{fill:#003B56;}
	.st1{fill:#207FC2;}
	.st2{fill:url(#gradient-background_00000047765468848740505780000016670726266992693136_);}
</style>
<path id="SQLite" class="st0" d="M360.3,283.7c-9.7,0-17.6,2.9-23.7,8.6c-6.1,5.8-9.1,13.3-9.1,22.5c0,4.5,0.7,9,2.3,13.2
	c1.6,4.1,4,7.9,7,11.1c3.1,3.4,9.5,7.9,18.8,13.7c11.5,7,19.1,12.7,22.7,17.2s5.4,9.1,5.4,14c0,6.5-2.1,11.7-6.5,15.6
	s-10.3,5.9-17.6,5.9c-7.6,0.1-14.8-2.9-20.2-8.1c-5.8-5.4-8.7-12.6-8.8-21.5h-3.6v32.6h3.6c1.1-3.1,2.6-4.7,4.6-4.7
	c1,0,3.2,0.7,6.7,1.9c8.5,3,15.5,4.5,20.9,4.5c18.9,0,34.2-15.4,34.2-34.3c0.1-7.1-2.3-14-6.6-19.5c-4.4-5.7-12.9-12.3-25.6-19.9
	c-11-6.6-18.1-12-21.4-16.1c-3.2-3.9-5-8.8-5-13.9c-0.2-5.1,2-10,6-13.2c4-3.3,9.2-4.9,15.7-4.9c7.3,0,13.4,2.2,18.3,6.5
	s7.6,10.5,8.4,18.3h3.6V285H387c-0.2,1-0.6,1.9-1.1,2.8c-0.5,0.5-1.3,0.7-2,0.6c-2.1-0.2-4.1-0.7-6.1-1.5
	C372.1,284.9,366.2,283.8,360.3,283.7z M477.6,283.7c-11.3-0.1-22.5,2.8-32.3,8.4c-19.5,11.3-31.5,32.1-31.6,54.7
	c-0.1,14.7,5.1,29,14.8,40.1c9.9,11.7,21.7,19,35.5,21.8c3.1,1.6,7.7,5.9,13.5,12.7c6.6,7.7,12.3,13.3,16.9,16.6
	c4.5,3.3,9.5,5.7,14.9,7.4c5.6,1.6,11.3,2.5,17.1,2.4c6.9,0.1,13.7-1.2,20-4l-1.3-3.3c-3.5,1.2-7.2,1.9-10.9,1.8
	c-5.2,0-10.5-1.7-15.8-5.2s-11.9-10-19.7-19.8c-3.7-4.7-6.2-7.6-7.7-8.8c14.6-2.7,27.7-10.4,37.1-21.9c9.5-11.1,14.7-25.3,14.5-40
	c0-17.7-6.3-32.7-18.8-44.8C511.4,289.9,495.9,283.8,477.6,283.7L477.6,283.7z M550.9,283.7l0.2,3.8c7.9,0,12.3,2.3,13.3,7
	c0.5,3,0.6,6.1,0.6,9.2l-0.1,85c-0.1,6.3-1,10.4-2.7,12.2c-1.7,1.7-4.7,2.8-9,3.3L553,408h78.6l2-19.3h-3.6c-1,5.2-3.4,9-7.1,11.1
	s-10.4,3.2-20,3.2h-7.4c-8.6,0-13.6-3.1-14.9-9.4c-0.3-1.3-0.4-2.7-0.4-4l0.3-85.9c0-6.3,0.8-10.6,2.5-12.7c1.7-2.1,4.7-3.2,9.1-3.5
	l-0.2-3.8L550.9,283.7z M478.9,288.4c13.4,0,24.3,5.3,32.7,15.9c8.4,10.6,12.6,25.2,12.6,43.6c0,17.5-4.2,31.5-12.7,42
	c-8.5,10.5-19.8,15.8-33.8,15.8c-13.5,0-24.4-5.4-32.8-16.3c-8.4-10.8-12.6-24.9-12.5-42.3c0-17.8,4.2-32,12.7-42.7
	C453.4,293.7,464.7,288.4,478.9,288.4L478.9,288.4z M659.7,306.6c-1.7-0.1-3.4,0.6-4.5,2c-1.1,1.3-1.5,3.1-1.1,4.8
	c0.4,1.9,1.5,3.6,3.1,4.9c1.5,1.3,3.4,2.1,5.3,2.1c1.7,0.1,3.3-0.7,4.3-2.1c1-1.4,1.4-3.2,1-4.9c-0.4-1.9-1.5-3.6-3-4.8
	C663.5,307.3,661.6,306.7,659.7,306.6z M711.6,319.6c-3.3,12.5-10.3,19.3-21.2,20.4l0.1,3.6h12.7l-0.2,42.5c0,7.3,0.2,12.1,0.8,14.6
	c1.2,5.9,5.1,8.9,11.5,8.9c9.3,0,19.1-5.7,29.3-17l-3.1-2.7c-7.4,7.5-13.9,11.2-19.6,11.2c-3.5,0-5.7-2-6.5-6
	c-0.2-1.1-0.3-2.3-0.3-3.4l0.1-48.1h19.3l-0.2-5.7h-19.1v-18.2L711.6,319.6z M786.4,335.6c-10.8,0-19.6,5.2-26.5,15.7
	c-6.8,10.5-8.9,22-6.2,34.8c1.6,7.5,4.7,13.2,9.5,17.3s10.9,6.1,18.1,6.1c6.8,0,16.2-1.7,20.2-5.2s7.6-9,11-16.7l-2.8-2.8
	c-5.4,9.9-16.3,14.9-24.5,14.9c-11.3,0-18.2-6.2-20.8-18.5c-0.3-1.7-0.6-3.3-0.8-5c13.4-2.1,23.6-5.9,30.5-11.3
	c6.9-5.5,13.8-11.2,12.5-17.3c-0.7-3.5-2.7-6.6-5.5-8.6C798.2,336.8,790.6,335.7,786.4,335.6L786.4,335.6z M668.1,336.1l-23.4,5.4
	v4.2l8.1-1c3.9,0,6.2,1.8,6.9,5.3c0.3,1.6,0.4,3.3,0.4,4.9l-0.3,38.1c-0.1,5.3-0.7,8.3-1.8,9.3s-4.3,1.4-9.4,1.4l-0.1,3.6h37
	l-0.1-3.6c-5.1,0-8.5-0.4-10-1.2c-1.6-0.9-2.7-2.6-2.9-4.4c-0.4-2.7-0.6-5.4-0.5-8.1l0.1-53.8L668.1,336.1z M780.5,343.1
	c2.4,0.1,4.8,1,6.6,2.6c1.9,1.4,3.3,3.4,3.9,5.7c2.1,10.1-6.9,17.1-27.1,21c-0.7-7,0.7-14,4-20.2C771,346.3,775.3,343.2,780.5,343.1
	L780.5,343.1z"/>
<path id="solid-background" class="st1" d="M308,138.2H107.4c-13.5,0-24.4,11-24.4,24.4v221.2c0,13.5,11,24.4,24.4,24.5h132.1
	C238.1,342.6,260.5,215,308,138.2z"/>
<linearGradient id="gradient-background_00000085953210718731710020000011556075305048035748_" gradientUnits="userSpaceOnUse" x1="157.516" y1="-246.379" x2="175.406" y2="-246.379" gradientTransform="matrix(0 11.49 -11.49 0 -2635.4602 -1659.9399)">
	<stop  offset="0" style="stop-color:#98D6F4"/>
	<stop  offset="0.92" style="stop-color:#207FC2"/>
	<stop  offset="1" style="stop-color:#207FC2"/>
</linearGradient>
<path id="gradient-background" style="fill:url(#gradient-background_00000085953210718731710020000011556075305048035748_);" d="
	M300.7,145.3H107.4c-9.6,0-17.3,7.8-17.3,17.3v205.1c43.8-16.8,109.5-31.3,154.9-30.6C254.2,289.3,281,195.8,300.7,145.3z"/>
<path id="feather" class="st0" d="M354.8,131c-13.7-12.2-30.4-7.3-46.8,7.2c-2.4,2.2-4.9,4.6-7.3,7.1c-28.1,29.8-54.2,85-62.2,127.1
	c3.1,6.4,5.6,14.6,7.2,20.8c0.4,1.6,0.8,3.1,1.1,4.4c0.7,3,1.1,5,1.1,5s-0.2-1-1.3-4c-0.2-0.6-0.4-1.2-0.7-1.9
	c-0.1-0.3-0.3-0.7-0.4-1.1c-1.8-4.3-6.9-13.2-9.1-17.2c-1.9,5.6-3.6,10.9-5,15.6c6.4,11.8,10.4,32,10.4,32s-0.3-1.3-1.9-5.9
	c-1.4-4-8.6-16.6-10.3-19.5c-2.9,10.7-4,17.9-3,19.7c2,3.4,3.9,9.3,5.6,15.8c3.8,14.6,6.5,32.5,6.5,32.5l0.2,3
	c-0.5,12.2-0.3,24.4,0.7,36.6c1.3,15.3,3.6,28.4,6.7,35.4l2.1-1.1c-4.4-13.8-6.2-32-5.5-52.9c1.2-31.9,8.6-70.5,22.1-110.6
	c22.9-60.6,54.8-109.2,83.9-132.5c-26.6,24-62.5,101.6-73.3,130.4c-12,32.2-20.6,62.4-25.7,91.4c8.9-27.1,37.6-38.8,37.6-38.8
	s14.1-17.4,30.5-42.2c-9.9,2.2-26,6.1-31.5,8.4c-8,3.4-10.1,4.5-10.1,4.5s25.9-15.8,48.1-22.9C355.1,229.2,388.4,160.9,354.8,131"/>
</svg>
