<?xml version="1.0" standalone="no"?>
<!DOCTYPE svg PUBLIC "-//W3C//DTD SVG 20010904//EN"
 "http://www.w3.org/TR/2001/REC-SVG-20010904/DTD/svg10.dtd">
<svg version="1.0" xmlns="http://www.w3.org/2000/svg"
 width="500.000000pt" height="500.000000pt" viewBox="0 0 500.000000 500.000000"
 preserveAspectRatio="xMidYMid meet">
<metadata>
Created by potrace 1.14, written by Peter Selinger 2001-2017
</metadata>
<g transform="translate(0.000000,500.000000) scale(0.100000,-0.100000)"
fill="#000000" stroke="none">
<path d="M1496 4572 c-3 -3 -92 -12 -138 -14 -16 -1 -28 -5 -28 -9 0 -4 -9 -6
-20 -4 -11 2 -22 -1 -25 -6 -4 -5 -11 -7 -16 -4 -5 4 -15 3 -21 -2 -16 -9 -37
-14 -60 -14 -10 0 -18 -5 -18 -11 0 -5 -7 -8 -15 -4 -8 3 -15 1 -15 -5 0 -6
-4 -8 -8 -5 -5 3 -23 -4 -41 -15 -18 -11 -30 -15 -26 -9 8 13 -36 -10 -46 -23
-3 -5 -10 -9 -15 -9 -23 -2 -64 -25 -57 -33 5 -4 1 -6 -7 -3 -13 4 -31 -7 -65
-39 -7 -7 -15 -9 -19 -6 -3 4 -6 1 -6 -5 0 -7 -6 -12 -14 -12 -8 0 -23 -10
-33 -22 -10 -13 -35 -38 -56 -55 -21 -18 -35 -33 -31 -33 3 0 -4 -9 -17 -20
-13 -10 -21 -19 -16 -20 4 0 -7 -14 -25 -31 -18 -17 -26 -28 -18 -24 8 4 6 -1
-4 -9 -11 -9 -17 -16 -13 -16 4 0 -1 -8 -11 -18 -11 -11 -25 -33 -33 -50 -8
-18 -18 -32 -22 -32 -5 0 -5 -4 -2 -10 3 -5 1 -10 -5 -10 -6 0 -9 -4 -5 -9 3
-5 1 -12 -5 -16 -6 -4 -8 -11 -5 -16 4 -5 1 -9 -5 -9 -6 0 -9 -4 -5 -9 3 -5 1
-12 -5 -16 -6 -4 -8 -11 -5 -16 4 -5 1 -9 -5 -9 -6 0 -8 -4 -5 -10 3 -5 2 -10
-3 -10 -5 0 -9 -6 -10 -12 -1 -15 -4 -25 -21 -87 -7 -25 -14 -56 -16 -70 -2
-14 -4 -26 -5 -26 -3 0 -9 -38 -16 -90 -9 -64 -9 -2085 0 -2145 3 -25 8 -61
11 -80 5 -38 13 -75 15 -75 1 0 3 -11 5 -25 5 -28 12 -62 15 -70 1 -3 2 -8 1
-12 0 -5 4 -8 9 -8 5 0 9 -3 9 -7 -3 -16 14 -74 22 -79 5 -3 7 -10 4 -15 -4
-5 -1 -9 5 -9 6 0 9 -4 5 -9 -3 -5 1 -15 8 -23 7 -7 15 -17 16 -23 11 -35 22
-55 30 -55 6 0 8 -7 5 -15 -4 -8 1 -17 10 -21 9 -3 13 -10 10 -15 -3 -5 -1 -9
3 -9 5 0 19 -18 33 -40 13 -22 30 -42 37 -44 7 -3 13 -13 13 -21 0 -9 4 -13
10 -10 5 3 10 -1 10 -9 0 -8 5 -18 12 -22 7 -5 8 -3 3 6 -5 9 -4 11 3 6 7 -4
12 -13 12 -21 0 -8 5 -17 12 -21 7 -5 8 -3 3 7 -5 8 7 -2 27 -21 51 -50 104
-90 118 -90 6 0 26 -11 44 -25 18 -14 36 -22 39 -18 4 3 7 2 7 -4 0 -8 33 -24
43 -20 1 0 13 -6 27 -13 14 -8 29 -13 34 -12 5 2 16 -4 25 -12 9 -8 30 -17 46
-20 17 -2 30 -5 30 -6 0 -1 7 -3 15 -5 8 -2 26 -7 40 -10 43 -11 124 -25 185
-31 66 -8 2056 -7 2110 0 28 4 64 9 80 12 17 3 40 6 53 7 12 0 22 4 22 7 0 4
6 7 13 7 23 0 157 37 157 43 0 3 10 6 22 7 11 1 25 8 29 15 5 7 9 9 9 4 0 -5
6 -3 13 3 8 6 17 8 20 4 4 -3 7 -1 7 6 0 7 4 10 8 7 5 -3 18 4 30 14 12 11 27
20 35 20 7 0 33 17 57 38 24 20 40 30 35 22 -5 -8 9 0 31 19 66 58 118 111
108 112 -5 0 2 4 14 10 13 5 26 18 29 29 3 11 10 20 15 20 5 0 7 4 4 9 -3 5 1
11 9 15 8 3 15 12 15 21 0 8 3 15 8 15 4 0 13 9 20 21 11 17 11 20 0 14 -7 -3
-5 0 4 8 10 8 18 19 18 26 0 6 4 11 10 11 5 0 9 3 8 8 -1 4 5 21 15 38 9 17
13 34 10 38 -4 3 -1 6 5 6 7 0 11 3 10 8 -1 4 3 17 10 30 7 12 11 22 8 22 -3
0 1 15 9 34 13 30 21 62 29 106 1 8 6 22 10 31 4 9 6 20 5 25 -1 5 0 11 1 14
3 7 9 55 16 115 5 53 8 1928 2 2053 -1 39 -5 72 -8 72 -3 0 -6 15 -7 33 -1 17
-4 43 -7 57 -2 14 -8 41 -11 60 -4 19 -10 39 -15 44 -5 5 -6 14 -4 21 3 7 1
16 -5 19 -6 4 -8 13 -4 21 3 8 0 15 -7 15 -6 0 -9 4 -6 8 3 5 -1 20 -9 35 -7
14 -11 28 -7 31 3 3 0 6 -7 6 -8 0 -11 7 -7 15 3 8 -2 19 -12 24 -9 6 -13 11
-8 11 5 0 1 10 -10 22 -10 12 -13 18 -6 14 11 -7 11 -4 0 13 -7 12 -16 21 -21
21 -4 0 -6 4 -3 9 3 5 -5 20 -18 34 -13 14 -22 28 -20 30 3 2 -9 18 -25 36
-16 17 -26 31 -23 31 4 0 -10 15 -30 34 -20 19 -34 37 -31 40 4 3 1 6 -4 6 -6
0 -30 18 -54 40 -23 21 -46 37 -51 34 -4 -3 -8 -1 -8 4 0 10 -53 50 -72 54 -7
2 -19 10 -26 18 -12 13 -13 13 -7 0 4 -10 2 -9 -8 2 -8 10 -17 15 -20 11 -4
-3 -7 -1 -7 6 0 7 -4 9 -10 6 -5 -3 -10 -1 -10 5 0 6 -4 9 -9 5 -5 -3 -12 -1
-16 5 -4 6 -11 8 -16 5 -5 -4 -9 -2 -9 3 0 9 -78 37 -92 34 -5 -1 -8 3 -8 9 0
6 -7 9 -15 6 -8 -4 -17 -2 -20 3 -3 5 -14 7 -25 5 -11 -2 -20 1 -20 7 0 6 -3
9 -6 6 -3 -4 -20 -2 -37 3 -33 10 -79 17 -157 26 -47 5 -2049 10 -2054 5z
m1739 -956 c53 -18 108 -52 131 -80 13 -17 28 -36 34 -42 5 -7 6 -15 3 -18 -4
-3 -2 -6 4 -6 5 0 11 -6 12 -12 7 -42 5 -1898 -2 -1898 -5 0 -7 -6 -5 -12 3
-7 -1 -19 -9 -26 -7 -8 -10 -18 -7 -24 4 -7 2 -8 -4 -4 -7 4 -12 1 -12 -7 0
-8 -7 -17 -15 -21 -8 -3 -15 -13 -15 -21 0 -9 -4 -13 -10 -10 -5 3 -10 1 -10
-4 0 -6 -7 -11 -15 -11 -8 0 -15 -5 -15 -11 0 -5 -4 -7 -10 -4 -5 3 -10 2 -10
-3 0 -5 -6 -9 -12 -10 -7 -1 -31 -4 -53 -7 -50 -8 -54 -8 -90 0 -16 4 -36 8
-42 8 -7 0 -13 4 -13 7 0 4 -12 13 -28 19 -15 6 -36 24 -47 40 -10 16 -23 27
-29 24 -5 -3 -6 -1 -2 5 3 6 2 13 -4 17 -5 3 -10 15 -10 26 0 10 -4 19 -9 19
-12 0 -10 -84 -14 935 -1 490 1 906 6 925 5 19 9 42 11 51 5 35 77 118 104
119 8 0 10 5 6 13 -4 6 -4 9 -1 6 4 -3 29 2 57 11 49 17 88 19 125 6z m-1316
-1087 c40 -17 112 -72 111 -84 -1 -22 1 -25 12 -19 6 4 8 3 5 -3 -3 -5 0 -22
8 -37 12 -22 14 -98 11 -429 -2 -221 -5 -408 -6 -414 -2 -7 -7 -13 -12 -13 -6
0 -8 -5 -6 -12 5 -14 -90 -108 -109 -108 -8 0 -12 -4 -8 -9 3 -6 -3 -10 -12
-10 -10 0 -51 -2 -90 -5 -40 -2 -73 0 -73 5 0 5 -4 9 -9 9 -5 0 -22 5 -38 12
-15 6 -31 11 -35 10 -5 -1 -7 4 -5 11 1 6 -4 11 -10 10 -7 -2 -12 3 -10 10 1
6 -4 11 -10 10 -7 -2 -12 0 -11 5 1 4 -9 27 -22 52 l-24 45 1 400 c0 308 3
407 13 430 7 17 13 33 12 38 -1 4 3 7 8 7 6 0 15 11 21 24 6 13 20 27 31 29
13 4 17 10 12 18 -5 9 -2 10 9 6 8 -3 21 1 27 8 7 8 15 13 19 11 3 -2 20 1 36
8 38 16 98 10 154 -15z"/>
</g>
</svg>
